<svg width="32" height="32" viewBox="0 0 32 32" fill="none" xmlns="http://www.w3.org/2000/svg">
<rect width="32" height="32" rx="8" fill="white" fill-opacity="0.95"/>
<path d="M22.5259 12.6493C22.3811 12.5592 22.2155 12.5079 22.0452 12.5002C21.8748 12.4925 21.7053 12.5287 21.553 12.6053C21.5376 12.6132 21.5227 12.6215 21.5081 12.6307L20.0012 13.5891V13.0004C20.0004 12.3376 19.7368 11.7021 19.2681 11.2335C18.7995 10.7648 18.164 10.5011 17.5012 10.5004H11.5012C10.8384 10.5011 10.203 10.7648 9.73431 11.2335C9.26564 11.7021 9.002 12.3376 9.00122 13.0004V19.0004C9.002 19.6632 9.26564 20.2986 9.73431 20.7673C10.203 21.2359 10.8384 21.4996 11.5012 21.5004H17.5012C18.164 21.4996 18.7995 21.2359 19.2681 20.7673C19.7368 20.2986 20.0004 19.6632 20.0012 19.0004V18.4113L21.5081 19.369C21.5225 19.3783 21.5374 19.3866 21.5525 19.3944C21.7049 19.4707 21.8743 19.5068 22.0447 19.4992C22.215 19.4916 22.3805 19.4406 22.5255 19.351C22.6706 19.2614 22.7903 19.1363 22.8733 18.9874C22.9564 18.8385 23 18.6709 23 18.5004V13.4999C23.0006 13.3293 22.9573 13.1615 22.8743 13.0125C22.7912 12.8636 22.6713 12.7385 22.5259 12.6493ZM19.0012 19.0004C19.0008 19.3981 18.8426 19.7793 18.5614 20.0605C18.2802 20.3418 17.8989 20.4999 17.5012 20.5004H11.5012C11.1035 20.4999 10.7223 20.3418 10.441 20.0605C10.1598 19.7793 10.0017 19.3981 10.0012 19.0004V13.0004C10.0017 12.6027 10.1598 12.2214 10.441 11.9402C10.7223 11.659 11.1035 11.5008 11.5012 11.5004H17.5012C17.8989 11.5008 18.2802 11.659 18.5614 11.9402C18.8426 12.2214 19.0008 12.6027 19.0012 13.0004V19.0004ZM20.0012 17.2265V14.7741L22 13.5028L22.0002 18.497L20.0012 17.2265Z" fill="black" fill-opacity="0.95"/>
</svg>
