<svg width="20" height="20" viewBox="0 0 20 20" fill="none" xmlns="http://www.w3.org/2000/svg">
<path d="M18.1564 5.81134C17.9755 5.69853 17.7686 5.63422 17.5557 5.62459C17.3427 5.61497 17.1309 5.66037 16.9406 5.75641C16.9215 5.76603 16.903 5.77662 16.885 5.78815L15.0009 6.98581V6.25018C14.9999 5.42168 14.6703 4.62739 14.0845 4.04155C13.4986 3.45571 12.7044 3.12616 11.8759 3.12518H4.37585C3.54735 3.12616 2.75306 3.45571 2.16722 4.04155C1.58138 4.62739 1.25183 5.42168 1.25085 6.25018V13.7502C1.25183 14.5787 1.58138 15.373 2.16722 15.9588C2.75306 16.5447 3.54735 16.8742 4.37585 16.8752H11.8759C12.7044 16.8742 13.4986 16.5447 14.0845 15.9588C14.6703 15.373 14.9999 14.5787 15.0009 13.7502V13.0133L16.885 14.211C16.9026 14.2225 16.921 14.2329 16.9399 14.2421C17.1305 14.3376 17.3422 14.3827 17.5551 14.3733C17.768 14.3638 17.975 14.3001 18.1563 14.1881C18.3376 14.0761 18.4872 13.9196 18.591 13.7334C18.6947 13.5473 18.7491 13.3377 18.749 13.1245V6.87455C18.7498 6.66137 18.6957 6.45158 18.5919 6.26537C18.4881 6.07916 18.3381 5.9228 18.1564 5.81134ZM13.7509 13.7502C13.7503 14.2473 13.5526 14.7239 13.2011 15.0754C12.8496 15.4269 12.373 15.6246 11.8759 15.6252H4.37585C3.87874 15.6246 3.40214 15.4269 3.05063 15.0754C2.69912 14.7239 2.5014 14.2473 2.50085 13.7502V6.25018C2.5014 5.75307 2.69912 5.27647 3.05063 4.92496C3.40214 4.57344 3.87874 4.37573 4.37585 4.37518H11.8759C12.373 4.37573 12.8496 4.57344 13.2011 4.92496C13.5526 5.27647 13.7503 5.75307 13.7509 6.25018V13.7502ZM15.0009 11.5326V8.46652L17.499 6.87885L17.5003 13.1209L15.0009 11.5326Z" fill="white" fill-opacity="0.95"/>
<path d="M5.625 8.75003C6.31536 8.75003 6.875 8.19039 6.875 7.50003C6.875 6.80967 6.31536 6.25003 5.625 6.25003C4.93464 6.25003 4.375 6.80967 4.375 7.50003C4.375 8.19039 4.93464 8.75003 5.625 8.75003Z" fill="#27A17A"/>
</svg>
